<svg xmlns="http://www.w3.org/2000/svg" viewBox="0 0 24 24" width="64" height="64">
  <!-- Drone body/frame -->
  <path d="M12 9A3 3 0 1 0 12 15A3 3 0 1 0 12 9Z" fill="#ff4500"/>
  <!-- Front right arm -->
  <path d="M14 10.5 L18 6.5" stroke="#ff4500" stroke-width="2"/>
  <circle cx="18" cy="6.5" r="3" fill="none" stroke="#e11d48" stroke-width="2"/>
  <circle cx="18" cy="6.5" r="1.5" fill="#333"/>
  <!-- Front left arm -->
  <path d="M10 10.5 L6 6.5" stroke="#ff4500" stroke-width="2"/>
  <circle cx="6" cy="6.5" r="3" fill="none" stroke="#e11d48" stroke-width="2"/>
  <circle cx="6" cy="6.5" r="1.5" fill="#333"/>
  <!-- Back right arm -->
  <path d="M14 13.5 L18 17.5" stroke="#ff4500" stroke-width="2"/>
  <circle cx="18" cy="17.5" r="3" fill="none" stroke="#e11d48" stroke-width="2"/>
  <circle cx="18" cy="17.5" r="1.5" fill="#333"/>
  <!-- Back left arm -->
  <path d="M10 13.5 L6 17.5" stroke="#ff4500" stroke-width="2"/>
  <circle cx="6" cy="17.5" r="3" fill="none" stroke="#e11d48" stroke-width="2"/>
  <circle cx="6" cy="17.5" r="1.5" fill="#333"/>
  <!-- Center indicator -->
  <circle cx="12" cy="12" r="1" fill="#fff"/>
</svg>
